<svg width="100%" viewBox="0 0 680 920" xmlns="http://www.w3.org/2000/svg" style="font-family: sans-serif;">
<defs>
  <style>
    .th { font-size: 14px; font-weight: 500; fill: #2C2C2A; }
    .ts { font-size: 12px; font-weight: 400; fill: #5F5E5A; }
    .c-gray-fill   { fill: #F1EFE8; stroke: #5F5E5A; }
    .c-blue-fill   { fill: #E6F1FB; stroke: #185FA5; }
    .c-blue-dark   { fill: #B5D4F4; stroke: #185FA5; }
    .c-teal-fill   { fill: #E1F5EE; stroke: #0F6E56; }
    .c-purple-fill { fill: #EEEDFE; stroke: #534AB7; }
    .c-amber-fill  { fill: #FAEEDA; stroke: #854F0B; }
    .c-coral-fill  { fill: #FAECE7; stroke: #993C1D; }
    .c-green-fill  { fill: #EAF3DE; stroke: #3B6D11; }
    .c-net-fill    { fill: rgba(180,178,169,0.10); stroke: #B4B2A9; }
    .c-violet-fill { fill: #F3EFFE; stroke: #6D28D9; }
    .th-blue   { fill: #0C447C; }
    .th-teal   { fill: #085041; }
    .th-purple { fill: #3C3489; }
    .th-amber  { fill: #633806; }
    .th-coral  { fill: #712B13; }
    .th-green  { fill: #27500A; }
    .th-gray   { fill: #444441; }
    .th-violet { fill: #4C1D95; }
    .ts-blue   { fill: #185FA5; }
    .ts-teal   { fill: #0F6E56; }
    .ts-purple { fill: #534AB7; }
    .ts-amber  { fill: #854F0B; }
    .ts-coral  { fill: #993C1D; }
    .ts-green  { fill: #3B6D11; }
    .ts-gray   { fill: #5F5E5A; }
    .ts-violet { fill: #6D28D9; }
  </style>
  <marker id="a" viewBox="0 0 10 10" refX="8" refY="5" markerWidth="6" markerHeight="6" orient="auto-start-reverse">
    <path d="M2 1L8 5L2 9" fill="none" stroke="context-stroke" stroke-width="1.5" stroke-linecap="round" stroke-linejoin="round"/>
  </marker>
</defs>

<!-- VPS -->
<rect x="20" y="20" width="640" height="890" rx="16" class="c-gray-fill" stroke-width="0.5"/>
<text class="th th-gray" x="340" y="47" text-anchor="middle">Hostinger VPS — Ubuntu 24.04</text>
<text class="ts ts-gray" x="340" y="64" text-anchor="middle">root + user alex</text>

<!-- Docker Engine -->
<rect x="40" y="78" width="600" height="552" rx="12" class="c-blue-fill" stroke-width="0.5"/>
<text class="th th-blue" x="340" y="100" text-anchor="middle">Docker Engine</text>
<text class="ts ts-blue" x="340" y="116" text-anchor="middle">docker compose — /home/alex/ugly-stack</text>

<!-- Cloudflare Tunnel -->
<rect x="60" y="128" width="560" height="48" class="c-blue-dark" rx="8" stroke-width="1"/>
<text class="th th-blue" x="340" y="148" text-anchor="middle">Cloudflare Tunnel (cloudflared)</text>
<text class="ts ts-blue" x="340" y="164" text-anchor="middle">einziger Eingang von aussen — kein Port offen</text>

<!-- Subdomain labels -->
<text class="ts ts-gray" x="100" y="192" text-anchor="middle">claw.</text>
<text class="ts ts-gray" x="210" y="192" text-anchor="middle">www.</text>
<text class="ts ts-gray" x="320" y="192" text-anchor="middle">search.</text>
<text class="ts ts-gray" x="430" y="192" text-anchor="middle">n8n.</text>
<text class="ts ts-gray" x="560" y="192" text-anchor="middle">mail.</text>
<line x1="100" y1="176" x2="100" y2="198" stroke="#185FA5" stroke-width="0.5" stroke-dasharray="3 2" marker-end="url(#a)"/>
<line x1="210" y1="176" x2="210" y2="198" stroke="#185FA5" stroke-width="0.5" stroke-dasharray="3 2" marker-end="url(#a)"/>
<line x1="320" y1="176" x2="320" y2="198" stroke="#185FA5" stroke-width="0.5" stroke-dasharray="3 2" marker-end="url(#a)"/>
<line x1="430" y1="176" x2="430" y2="198" stroke="#185FA5" stroke-width="0.5" stroke-dasharray="3 2" marker-end="url(#a)"/>
<line x1="560" y1="176" x2="560" y2="198" stroke="#185FA5" stroke-width="0.5" stroke-dasharray="3 2" marker-end="url(#a)"/>

<!-- nginx -->
<rect x="60" y="202" width="560" height="48" rx="8" class="c-gray-fill" stroke-width="0.5"/>
<text class="th th-gray" x="340" y="222" text-anchor="middle">nginx — Reverse Proxy</text>
<text class="ts ts-gray" x="340" y="238" text-anchor="middle">intern :80 — verteilt an Services</text>

<!-- ugly-net Rahmen -->
<rect x="56" y="258" width="568" height="152" rx="10" class="c-net-fill" stroke-width="1.2" stroke-dasharray="6 3"/>
<text class="ts ts-gray" x="340" y="274" text-anchor="middle" font-style="italic">ugly-net — internes Docker Bridge-Netzwerk</text>

<!-- Pfeile nginx → Container -->
<line x1="100" y1="250" x2="100" y2="282" stroke="#5F5E5A" stroke-width="0.5" marker-end="url(#a)"/>
<line x1="210" y1="250" x2="210" y2="282" stroke="#5F5E5A" stroke-width="0.5" marker-end="url(#a)"/>
<line x1="320" y1="250" x2="320" y2="282" stroke="#5F5E5A" stroke-width="0.5" marker-end="url(#a)"/>
<line x1="430" y1="250" x2="430" y2="282" stroke="#5F5E5A" stroke-width="0.5" marker-end="url(#a)"/>
<line x1="560" y1="250" x2="560" y2="282" stroke="#5F5E5A" stroke-width="0.5" marker-end="url(#a)"/>

<!-- OpenClaw -->
<rect x="62" y="284" width="106" height="116" rx="8" class="c-teal-fill" stroke-width="0.5"/>
<text class="th th-teal" x="115" y="306" text-anchor="middle">OpenClaw</text>
<text class="ts ts-teal" x="115" y="322" text-anchor="middle">ugly-agent</text>
<text class="ts ts-teal" x="115" y="338" text-anchor="middle">:18789</text>
<text class="ts ts-teal" x="115" y="354" text-anchor="middle">vol: openclaw-data</text>
<text class="ts ts-teal" x="115" y="370" text-anchor="middle">Brevo SMTP</text>
<text class="ts ts-teal" x="115" y="386" text-anchor="middle">OpenRouter</text>

<!-- nginx www -->
<rect x="178" y="284" width="106" height="116" rx="8" class="c-gray-fill" stroke-width="0.5"/>
<text class="th th-gray" x="231" y="306" text-anchor="middle">nginx www</text>
<text class="ts ts-gray" x="231" y="322" text-anchor="middle">Webserver</text>
<text class="ts ts-gray" x="231" y="338" text-anchor="middle">beautymolt.com</text>
<text class="ts ts-gray" x="231" y="354" text-anchor="middle">vol: ./www</text>

<!-- SearXNG -->
<rect x="294" y="284" width="106" height="116" rx="8" class="c-purple-fill" stroke-width="0.5"/>
<text class="th th-purple" x="347" y="306" text-anchor="middle">SearXNG</text>
<text class="ts ts-purple" x="347" y="322" text-anchor="middle">Metasuche</text>
<text class="ts ts-purple" x="347" y="338" text-anchor="middle">:8080</text>
<text class="ts ts-purple" x="347" y="354" text-anchor="middle">vol: searxng-data</text>

<!-- n8n -->
<rect x="410" y="284" width="106" height="116" rx="8" class="c-amber-fill" stroke-width="0.5"/>
<text class="th th-amber" x="463" y="306" text-anchor="middle">n8n</text>
<text class="ts ts-amber" x="463" y="322" text-anchor="middle">Automation</text>
<text class="ts ts-amber" x="463" y="338" text-anchor="middle">:5678</text>
<text class="ts ts-amber" x="463" y="354" text-anchor="middle">vol: n8n-data</text>
<text class="ts ts-amber" x="463" y="370" text-anchor="middle">Zoho Empfang</text>

<!-- Roundcube -->
<rect x="526" y="284" width="90" height="116" rx="8" class="c-coral-fill" stroke-width="0.5"/>
<text class="th th-coral" x="571" y="306" text-anchor="middle">Roundcube</text>
<text class="ts ts-coral" x="571" y="322" text-anchor="middle">Webmail</text>
<text class="ts ts-coral" x="571" y="338" text-anchor="middle">:80</text>
<text class="ts ts-coral" x="571" y="354" text-anchor="middle">vol: roundcube</text>
<text class="ts ts-coral" x="571" y="370" text-anchor="middle">Zoho IMAP</text>
<text class="ts ts-coral" x="571" y="386" text-anchor="middle">mail.beauty…</text>

<!-- n8n → OpenClaw HTTP Hook -->
<path d="M410 342 C370 342 200 342 168 342" fill="none" stroke="#854F0B" stroke-width="1.2" stroke-dasharray="5 3" marker-end="url(#a)"/>
<rect x="220" y="327" width="150" height="16" rx="3" fill="#FAEEDA" opacity="0.9"/>
<text font-size="10" fill="#633806" x="295" y="339" text-anchor="middle">HTTP Hook /hooks/agent</text>

<!-- Externe Anbindungen — Rahmen + Label -->
<rect x="56" y="420" width="568" height="88" rx="10" class="c-net-fill" stroke-width="1.2" stroke-dasharray="6 3"/>
<text class="ts ts-gray" x="340" y="436" text-anchor="middle" font-style="italic">Externe Anbindungen</text>

<!-- OpenRouter -->
<rect x="60" y="442" width="155" height="56" rx="8" class="c-teal-fill" stroke-width="0.5"/>
<text class="th th-teal" x="137" y="464" text-anchor="middle">OpenRouter</text>
<text class="ts ts-teal" x="137" y="480" text-anchor="middle">DeepSeek / Kimi</text>

<!-- Brevo -->
<rect x="228" y="442" width="155" height="56" rx="8" class="c-amber-fill" stroke-width="0.5"/>
<text class="th th-amber" x="305" y="464" text-anchor="middle">Brevo</text>
<text class="ts ts-amber" x="305" y="480" text-anchor="middle">SMTP relay :587</text>

<!-- Zoho Mail -->
<rect x="397" y="442" width="155" height="56" rx="8" class="c-coral-fill" stroke-width="0.5"/>
<text class="th th-coral" x="474" y="464" text-anchor="middle">Zoho Mail</text>
<text class="ts ts-coral" x="474" y="480" text-anchor="middle">IMAP / SMTP</text>

<!-- Verbindungen zu externen Diensten -->
<line x1="115" y1="400" x2="137" y2="440" stroke="#1D9E75" stroke-width="0.5" stroke-dasharray="3 2" marker-end="url(#a)"/>
<line x1="115" y1="400" x2="305" y2="440" stroke="#BA7517" stroke-width="0.5" stroke-dasharray="3 2" marker-end="url(#a)"/>
<line x1="463" y1="400" x2="474" y2="440" stroke="#993C1D" stroke-width="0.5" stroke-dasharray="3 2" marker-end="url(#a)"/>
<line x1="571" y1="400" x2="474" y2="440" stroke="#993C1D" stroke-width="0.5" stroke-dasharray="3 2" marker-end="url(#a)"/>

<!-- GitHub -->
<rect x="40" y="664" width="600" height="56" rx="8" class="c-green-fill" stroke-width="0.5"/>
<text class="th th-green" x="340" y="686" text-anchor="middle">GitHub — uglyatbeautymolt/VPS_Bootstrap</text>
<text class="ts ts-green" x="340" y="702" text-anchor="middle">bootstrap.sh · docker-compose.yml · .env.gpg (verschlüsselt) · backup/</text>

<!-- Untere Leiste: Bitwarden | Cloudflare R2 -->
<!-- Bitwarden -->
<rect x="40" y="738" width="290" height="64" rx="8" class="c-violet-fill" stroke-width="0.5"/>
<text class="th th-violet" x="185" y="762" text-anchor="middle">Bitwarden</text>
<text class="ts ts-violet" x="185" y="778" text-anchor="middle">BACKUP_GPG_PASSWORD</text>
<text class="ts ts-violet" x="185" y="793" text-anchor="middle">GITHUB_TOKEN</text>

<!-- Cloudflare R2 -->
<rect x="350" y="738" width="290" height="64" rx="8" class="c-blue-fill" stroke-width="0.5"/>
<text class="th th-blue" x="495" y="762" text-anchor="middle">Cloudflare R2</text>
<text class="ts ts-blue" x="495" y="778" text-anchor="middle">Backups GPG — 7 Tage Rotation</text>

<!-- Pfeile: Bitwarden + R2 → GitHub (bootstrap liest beides) -->
<line x1="185" y1="652" x2="185" y2="662" stroke="#6D28D9" stroke-width="0.5" stroke-dasharray="3 2" marker-end="url(#a)"/>
<line x1="495" y1="652" x2="495" y2="662" stroke="#185FA5" stroke-width="0.5" stroke-dasharray="3 2" marker-end="url(#a)"/>
<line x1="185" y1="722" x2="185" y2="736" stroke="#6D28D9" stroke-width="0.5" stroke-dasharray="3 2" marker-end="url(#a)"/>
<line x1="495" y1="722" x2="495" y2="736" stroke="#185FA5" stroke-width="0.5" stroke-dasharray="3 2" marker-end="url(#a)"/>

<!-- Telegram -->
<rect x="230" y="822" width="220" height="40" rx="8" class="c-gray-fill" stroke-width="0.5"/>
<text class="th th-gray" x="340" y="846" text-anchor="middle">Telegram → OpenClaw</text>
<path d="M340 822 L340 810 L115 810 L115 402" fill="none" stroke="#1D9E75" stroke-width="0.5" stroke-dasharray="3 2" marker-end="url(#a)"/>

</svg>
