<svg width="100%" viewBox="0 0 680 1060" xmlns="http://www.w3.org/2000/svg" style="font-family: sans-serif;">
<defs>
  <style>
    .th { font-size: 14px; font-weight: 500; fill: #2C2C2A; }
    .ts { font-size: 12px; font-weight: 400; fill: #5F5E5A; }
    .c-gray-fill   { fill: #F1EFE8; stroke: #5F5E5A; }
    .c-blue-fill   { fill: #E6F1FB; stroke: #185FA5; }
    .c-blue-dark   { fill: #B5D4F4; stroke: #185FA5; }
    .c-teal-fill   { fill: #E1F5EE; stroke: #0F6E56; }
    .c-purple-fill { fill: #EEEDFE; stroke: #534AB7; }
    .c-amber-fill  { fill: #FAEEDA; stroke: #854F0B; }
    .c-coral-fill  { fill: #FAECE7; stroke: #993C1D; }
    .c-green-fill  { fill: #EAF3DE; stroke: #3B6D11; }
    .c-net-fill    { fill: rgba(180,178,169,0.10); stroke: #B4B2A9; }
    .c-violet-fill { fill: #F3EFFE; stroke: #6D28D9; }
    .c-slate-fill  { fill: #F0F4FF; stroke: #3B5BDB; }
    .th-blue   { fill: #0C447C; }
    .th-teal   { fill: #085041; }
    .th-purple { fill: #3C3489; }
    .th-amber  { fill: #633806; }
    .th-coral  { fill: #712B13; }
    .th-green  { fill: #27500A; }
    .th-gray   { fill: #444441; }
    .th-violet { fill: #4C1D95; }
    .th-slate  { fill: #1E3A8A; }
    .ts-blue   { fill: #185FA5; }
    .ts-teal   { fill: #0F6E56; }
    .ts-purple { fill: #534AB7; }
    .ts-amber  { fill: #854F0B; }
    .ts-coral  { fill: #993C1D; }
    .ts-green  { fill: #3B6D11; }
    .ts-gray   { fill: #5F5E5A; }
    .ts-violet { fill: #6D28D9; }
    .ts-slate  { fill: #3B5BDB; }
  </style>
  <marker id="a" viewBox="0 0 10 10" refX="8" refY="5" markerWidth="6" markerHeight="6" orient="auto-start-reverse">
    <path d="M2 1L8 5L2 9" fill="none" stroke="context-stroke" stroke-width="1.5" stroke-linecap="round" stroke-linejoin="round"/>
  </marker>
</defs>

<!-- VPS — äusserer Rahmen -->
<rect x="20" y="20" width="640" height="1030" rx="16" class="c-gray-fill" stroke-width="0.5"/>
<text class="th th-gray" x="340" y="47" text-anchor="middle">Hostinger VPS — Ubuntu 24.04</text>
<text class="ts ts-gray" x="340" y="64" text-anchor="middle">root + user alex</text>

<!-- Docker Engine — endet VOR unattended-upgrades -->
<rect x="40" y="78" width="600" height="634" rx="12" class="c-blue-fill" stroke-width="0.5"/>
<text class="th th-blue" x="340" y="100" text-anchor="middle">Docker Engine</text>
<text class="ts ts-blue" x="340" y="116" text-anchor="middle">docker compose — /home/alex/ugly-stack</text>

<!-- Cloudflare Tunnel -->
<rect x="60" y="128" width="560" height="48" class="c-blue-dark" rx="8" stroke-width="1"/>
<text class="th th-blue" x="340" y="148" text-anchor="middle">Cloudflare Tunnel (cloudflared)</text>
<text class="ts ts-blue" x="340" y="164" text-anchor="middle">einziger Eingang von aussen — kein Port offen</text>

<!-- Subdomain labels -->
<text class="ts ts-gray" x="90" y="192" text-anchor="middle">claw.</text>
<text class="ts ts-gray" x="185" y="192" text-anchor="middle">www.</text>
<text class="ts ts-gray" x="280" y="192" text-anchor="middle">search.</text>
<text class="ts ts-gray" x="375" y="192" text-anchor="middle">n8n.</text>
<text class="ts ts-gray" x="470" y="192" text-anchor="middle">mail.</text>
<text class="ts ts-gray" x="572" y="192" text-anchor="middle">portainer.</text>
<line x1="90" y1="176" x2="90" y2="198" stroke="#185FA5" stroke-width="0.5" stroke-dasharray="3 2" marker-end="url(#a)"/>
<line x1="185" y1="176" x2="185" y2="198" stroke="#185FA5" stroke-width="0.5" stroke-dasharray="3 2" marker-end="url(#a)"/>
<line x1="280" y1="176" x2="280" y2="198" stroke="#185FA5" stroke-width="0.5" stroke-dasharray="3 2" marker-end="url(#a)"/>
<line x1="375" y1="176" x2="375" y2="198" stroke="#185FA5" stroke-width="0.5" stroke-dasharray="3 2" marker-end="url(#a)"/>
<line x1="470" y1="176" x2="470" y2="198" stroke="#185FA5" stroke-width="0.5" stroke-dasharray="3 2" marker-end="url(#a)"/>
<line x1="572" y1="176" x2="572" y2="198" stroke="#185FA5" stroke-width="0.5" stroke-dasharray="3 2" marker-end="url(#a)"/>

<!-- nginx -->
<rect x="60" y="202" width="560" height="48" rx="8" class="c-gray-fill" stroke-width="0.5"/>
<text class="th th-gray" x="340" y="222" text-anchor="middle">nginx — Reverse Proxy</text>
<text class="ts ts-gray" x="340" y="238" text-anchor="middle">intern :80 — verteilt an Services</text>

<!-- ugly-net Rahmen -->
<rect x="56" y="258" width="568" height="296" rx="10" class="c-net-fill" stroke-width="1.2" stroke-dasharray="6 3"/>
<text class="ts ts-gray" x="340" y="274" text-anchor="middle" font-style="italic">ugly-net — internes Docker Bridge-Netzwerk</text>

<!-- Pfeile nginx → Container -->
<line x1="90" y1="250" x2="90" y2="282" stroke="#5F5E5A" stroke-width="0.5" marker-end="url(#a)"/>
<line x1="185" y1="250" x2="185" y2="282" stroke="#5F5E5A" stroke-width="0.5" marker-end="url(#a)"/>
<line x1="280" y1="250" x2="280" y2="282" stroke="#5F5E5A" stroke-width="0.5" marker-end="url(#a)"/>
<line x1="375" y1="250" x2="375" y2="282" stroke="#5F5E5A" stroke-width="0.5" marker-end="url(#a)"/>
<line x1="470" y1="250" x2="470" y2="282" stroke="#5F5E5A" stroke-width="0.5" marker-end="url(#a)"/>
<line x1="572" y1="250" x2="572" y2="282" stroke="#5F5E5A" stroke-width="0.5" marker-end="url(#a)"/>

<!-- OpenClaw -->
<rect x="62" y="284" width="90" height="110" rx="8" class="c-teal-fill" stroke-width="0.5"/>
<text class="th th-teal" x="107" y="304" text-anchor="middle">OpenClaw</text>
<text class="ts ts-teal" x="107" y="320" text-anchor="middle">:18789</text>
<text class="ts ts-teal" x="107" y="336" text-anchor="middle">vol: openclaw</text>
<text class="ts ts-teal" x="107" y="352" text-anchor="middle">OpenRouter</text>
<text class="ts ts-teal" x="107" y="368" text-anchor="middle">Brevo REST</text>

<!-- nginx www -->
<rect x="158" y="284" width="90" height="110" rx="8" class="c-gray-fill" stroke-width="0.5"/>
<text class="th th-gray" x="203" y="304" text-anchor="middle">nginx www</text>
<text class="ts ts-gray" x="203" y="320" text-anchor="middle">Webserver</text>
<text class="ts ts-gray" x="203" y="336" text-anchor="middle">vol: ./www</text>

<!-- SearXNG -->
<rect x="254" y="284" width="90" height="110" rx="8" class="c-purple-fill" stroke-width="0.5"/>
<text class="th th-purple" x="299" y="304" text-anchor="middle">SearXNG</text>
<text class="ts ts-purple" x="299" y="320" text-anchor="middle">:8080</text>
<text class="ts ts-purple" x="299" y="336" text-anchor="middle">vol: searxng</text>

<!-- n8n -->
<rect x="350" y="284" width="90" height="110" rx="8" class="c-amber-fill" stroke-width="0.5"/>
<text class="th th-amber" x="395" y="304" text-anchor="middle">n8n</text>
<text class="ts ts-amber" x="395" y="320" text-anchor="middle">:5678</text>
<text class="ts ts-amber" x="395" y="336" text-anchor="middle">vol: n8n-data</text>
<text class="ts ts-amber" x="395" y="352" text-anchor="middle">Zoho IMAP</text>

<!-- Roundcube -->
<rect x="446" y="284" width="90" height="110" rx="8" class="c-coral-fill" stroke-width="0.5"/>
<text class="th th-coral" x="491" y="304" text-anchor="middle">Roundcube</text>
<text class="ts ts-coral" x="491" y="320" text-anchor="middle">:80</text>
<text class="ts ts-coral" x="491" y="336" text-anchor="middle">vol: roundcube</text>
<text class="ts ts-coral" x="491" y="352" text-anchor="middle">Zoho IMAP</text>

<!-- Portainer -->
<rect x="542" y="284" width="74" height="110" rx="8" class="c-slate-fill" stroke-width="0.5"/>
<text class="th th-slate" x="579" y="304" text-anchor="middle">Portainer</text>
<text class="ts ts-slate" x="579" y="320" text-anchor="middle">:9000</text>
<text class="ts ts-slate" x="579" y="336" text-anchor="middle">vol: portainer</text>
<text class="ts ts-slate" x="579" y="352" text-anchor="middle">Docker UI</text>

<!-- n8n Hook Pfeil -->
<line x1="395" y1="394" x2="395" y2="416" stroke="#854F0B" stroke-width="0.8" stroke-dasharray="4 2"/>
<line x1="107" y1="394" x2="107" y2="416" stroke="#854F0B" stroke-width="0.8" stroke-dasharray="4 2"/>
<line x1="395" y1="416" x2="112" y2="416" stroke="#854F0B" stroke-width="1.4" stroke-dasharray="5 3" marker-end="url(#a)"/>
<rect x="220" y="404" width="180" height="18" rx="4" fill="#FAEEDA" stroke="#854F0B" stroke-width="0.5"/>
<text font-size="11" font-weight="500" fill="#633806" x="310" y="417" text-anchor="middle">HTTP POST /hooks/agent</text>

<!-- Watchtower — innerhalb Docker Engine -->
<rect x="62" y="434" width="560" height="48" rx="8" class="c-green-fill" stroke-width="0.5"/>
<text class="th th-green" x="340" y="454" text-anchor="middle">Watchtower — Auto-Update (02:30 UTC)</text>
<text class="ts ts-green" x="340" y="470" text-anchor="middle">openclaw · searxng · nginx · roundcube — Docker Socket</text>

<!-- Externe Anbindungen — innerhalb Docker Engine -->
<rect x="56" y="494" width="568" height="88" rx="10" class="c-net-fill" stroke-width="1.2" stroke-dasharray="6 3"/>
<text class="ts ts-gray" x="340" y="510" text-anchor="middle" font-style="italic">Externe Anbindungen</text>

<!-- OpenRouter -->
<rect x="60" y="516" width="165" height="56" rx="8" class="c-teal-fill" stroke-width="0.5"/>
<text class="th th-teal" x="142" y="538" text-anchor="middle">OpenRouter</text>
<text class="ts ts-teal" x="142" y="554" text-anchor="middle">DeepSeek / Kimi</text>

<!-- Brevo -->
<rect x="240" y="516" width="165" height="56" rx="8" class="c-amber-fill" stroke-width="0.5"/>
<text class="th th-amber" x="322" y="538" text-anchor="middle">Brevo</text>
<text class="ts ts-amber" x="322" y="554" text-anchor="middle">SMTP + REST API</text>

<!-- Zoho Mail -->
<rect x="420" y="516" width="165" height="56" rx="8" class="c-coral-fill" stroke-width="0.5"/>
<text class="th th-coral" x="502" y="538" text-anchor="middle">Zoho Mail</text>
<text class="ts ts-coral" x="502" y="554" text-anchor="middle">IMAP / SMTP</text>

<!-- Verbindungen zu externen Diensten -->
<line x1="107" y1="482" x2="142" y2="514" stroke="#1D9E75" stroke-width="0.5" stroke-dasharray="3 2" marker-end="url(#a)"/>
<line x1="107" y1="482" x2="322" y2="514" stroke="#BA7517" stroke-width="0.5" stroke-dasharray="3 2" marker-end="url(#a)"/>
<line x1="395" y1="482" x2="502" y2="514" stroke="#993C1D" stroke-width="0.5" stroke-dasharray="3 2" marker-end="url(#a)"/>
<line x1="491" y1="482" x2="502" y2="514" stroke="#993C1D" stroke-width="0.5" stroke-dasharray="3 2" marker-end="url(#a)"/>

<!-- ═══ AB HIER: VPS-EBENE (ausserhalb Docker) ═══ -->

<!-- unattended-upgrades — auf VPS-Ebene, ausserhalb Docker Engine -->
<rect x="40" y="726" width="600" height="40" rx="8" class="c-gray-fill" stroke-width="1"/>
<text class="th th-gray" x="200" y="750" text-anchor="middle">unattended-upgrades</text>
<text class="ts ts-gray" x="490" y="746" text-anchor="middle">Ubuntu Security + Docker Engine</text>
<text class="ts ts-gray" x="490" y="760" text-anchor="middle">täglich 03:00 UTC — Reboot 03:30 UTC</text>

<!-- GitHub -->
<rect x="40" y="782" width="600" height="56" rx="8" class="c-green-fill" stroke-width="0.5"/>
<text class="th th-green" x="340" y="804" text-anchor="middle">GitHub — uglyatbeautymolt/VPS_Bootstrap</text>
<text class="ts ts-green" x="340" y="820" text-anchor="middle">bootstrap.sh · docker-compose.yml · .env.gpg (verschlüsselt) · backup/</text>

<!-- Bitwarden -->
<rect x="40" y="854" width="290" height="64" rx="8" class="c-violet-fill" stroke-width="0.5"/>
<text class="th th-violet" x="185" y="878" text-anchor="middle">Bitwarden</text>
<text class="ts ts-violet" x="185" y="894" text-anchor="middle">BACKUP_GPG_PASSWORD</text>
<text class="ts ts-violet" x="185" y="909" text-anchor="middle">GITHUB_TOKEN</text>

<!-- Cloudflare R2 -->
<rect x="350" y="854" width="290" height="64" rx="8" class="c-blue-fill" stroke-width="0.5"/>
<text class="th th-blue" x="495" y="878" text-anchor="middle">Cloudflare R2</text>
<text class="ts ts-blue" x="495" y="894" text-anchor="middle">Backups GPG — 7 normal + 4 WEEKLY</text>

<!-- Pfeile GitHub ↔ Bitwarden/R2 -->
<line x1="185" y1="770" x2="185" y2="780" stroke="#6D28D9" stroke-width="0.5" stroke-dasharray="3 2" marker-end="url(#a)"/>
<line x1="495" y1="770" x2="495" y2="780" stroke="#185FA5" stroke-width="0.5" stroke-dasharray="3 2" marker-end="url(#a)"/>
<line x1="185" y1="838" x2="185" y2="852" stroke="#6D28D9" stroke-width="0.5" stroke-dasharray="3 2" marker-end="url(#a)"/>
<line x1="495" y1="838" x2="495" y2="852" stroke="#185FA5" stroke-width="0.5" stroke-dasharray="3 2" marker-end="url(#a)"/>

<!-- Telegram -->
<rect x="230" y="934" width="220" height="40" rx="8" class="c-gray-fill" stroke-width="0.5"/>
<text class="th th-gray" x="340" y="958" text-anchor="middle">Telegram → OpenClaw</text>
<path d="M340 934 L340 922 L107 922 L107 482" fill="none" stroke="#1D9E75" stroke-width="0.5" stroke-dasharray="3 2" marker-end="url(#a)"/>

<!-- Zeitplan -->
<rect x="40" y="988" width="600" height="52" rx="8" class="c-gray-fill" stroke-width="0.5"/>
<text class="th th-gray" x="340" y="1008" text-anchor="middle">Automatischer Zeitplan (UTC)</text>
<text class="ts ts-gray" x="340" y="1026" text-anchor="middle">02:00 Backup → R2 + .env → GitHub + Mail · 02:30 Watchtower · 03:00 unattended-upgrades · 03:30 Reboot</text>

</svg>
