<svg width="100%" viewBox="0 0 680 860" xmlns="http://www.w3.org/2000/svg" style="font-family: sans-serif;">
<defs>
  <style>
    .th { font-size: 14px; font-weight: 500; fill: #2C2C2A; }
    .ts { font-size: 12px; font-weight: 400; fill: #5F5E5A; }
    .c-gray-fill   { fill: #F1EFE8; stroke: #5F5E5A; }
    .c-blue-fill   { fill: #E6F1FB; stroke: #185FA5; }
    .c-blue-dark   { fill: #B5D4F4; stroke: #185FA5; }
    .c-teal-fill   { fill: #E1F5EE; stroke: #0F6E56; }
    .c-purple-fill { fill: #EEEDFE; stroke: #534AB7; }
    .c-amber-fill  { fill: #FAEEDA; stroke: #854F0B; }
    .c-coral-fill  { fill: #FAECE7; stroke: #993C1D; }
    .c-green-fill  { fill: #EAF3DE; stroke: #3B6D11; }
    .c-net-fill    { fill: rgba(180,178,169,0.10); stroke: #B4B2A9; }
    .th-blue   { fill: #0C447C; }
    .th-teal   { fill: #085041; }
    .th-purple { fill: #3C3489; }
    .th-amber  { fill: #633806; }
    .th-coral  { fill: #712B13; }
    .th-green  { fill: #27500A; }
    .th-gray   { fill: #444441; }
    .ts-blue   { fill: #185FA5; }
    .ts-teal   { fill: #0F6E56; }
    .ts-purple { fill: #534AB7; }
    .ts-amber  { fill: #854F0B; }
    .ts-coral  { fill: #993C1D; }
    .ts-green  { fill: #3B6D11; }
    .ts-gray   { fill: #5F5E5A; }
  </style>
  <marker id="a" viewBox="0 0 10 10" refX="8" refY="5" markerWidth="6" markerHeight="6" orient="auto-start-reverse">
    <path d="M2 1L8 5L2 9" fill="none" stroke="context-stroke" stroke-width="1.5" stroke-linecap="round" stroke-linejoin="round"/>
  </marker>
</defs>

<!-- VPS -->
<rect x="20" y="20" width="640" height="830" rx="16" class="c-gray-fill" stroke-width="0.5"/>
<text class="th th-gray" x="340" y="47" text-anchor="middle">Hostinger VPS — Ubuntu 24.04</text>
<text class="ts ts-gray" x="340" y="64" text-anchor="middle">root + user alex</text>

<!-- Docker Engine -->
<rect x="40" y="78" width="600" height="552" rx="12" class="c-blue-fill" stroke-width="0.5"/>
<text class="th th-blue" x="340" y="100" text-anchor="middle">Docker Engine</text>
<text class="ts ts-blue" x="340" y="116" text-anchor="middle">docker compose — /home/alex/ugly-stack</text>

<!-- Cloudflare Tunnel -->
<rect x="60" y="128" width="560" height="48" class="c-blue-dark" rx="8" stroke-width="1"/>
<text class="th th-blue" x="340" y="148" text-anchor="middle">Cloudflare Tunnel (cloudflared)</text>
<text class="ts ts-blue" x="340" y="164" text-anchor="middle">einziger Eingang von aussen — kein Port offen</text>

<!-- Subdomain labels -->
<text class="ts ts-gray" x="100" y="192" text-anchor="middle">claw.</text>
<text class="ts ts-gray" x="210" y="192" text-anchor="middle">www.</text>
<text class="ts ts-gray" x="320" y="192" text-anchor="middle">search.</text>
<text class="ts ts-gray" x="430" y="192" text-anchor="middle">n8n.</text>
<text class="ts ts-gray" x="560" y="192" text-anchor="middle">mail.</text>
<line x1="100" y1="176" x2="100" y2="198" stroke="#185FA5" stroke-width="0.5" stroke-dasharray="3 2" marker-end="url(#a)"/>
<line x1="210" y1="176" x2="210" y2="198" stroke="#185FA5" stroke-width="0.5" stroke-dasharray="3 2" marker-end="url(#a)"/>
<line x1="320" y1="176" x2="320" y2="198" stroke="#185FA5" stroke-width="0.5" stroke-dasharray="3 2" marker-end="url(#a)"/>
<line x1="430" y1="176" x2="430" y2="198" stroke="#185FA5" stroke-width="0.5" stroke-dasharray="3 2" marker-end="url(#a)"/>
<line x1="560" y1="176" x2="560" y2="198" stroke="#185FA5" stroke-width="0.5" stroke-dasharray="3 2" marker-end="url(#a)"/>

<!-- nginx -->
<rect x="60" y="202" width="560" height="48" rx="8" class="c-gray-fill" stroke-width="0.5"/>
<text class="th th-gray" x="340" y="222" text-anchor="middle">nginx — Reverse Proxy</text>
<text class="ts ts-gray" x="340" y="238" text-anchor="middle">intern :80 — verteilt an Services</text>

<!-- ugly-net Rahmen -->
<rect x="56" y="258" width="568" height="152" rx="10" class="c-net-fill" stroke-width="1.2" stroke-dasharray="6 3"/>
<text class="ts ts-gray" x="340" y="274" text-anchor="middle" font-style="italic">ugly-net — internes Docker Bridge-Netzwerk</text>

<!-- Pfeile nginx → Container -->
<line x1="100" y1="250" x2="100" y2="282" stroke="#5F5E5A" stroke-width="0.5" marker-end="url(#a)"/>
<line x1="210" y1="250" x2="210" y2="282" stroke="#5F5E5A" stroke-width="0.5" marker-end="url(#a)"/>
<line x1="320" y1="250" x2="320" y2="282" stroke="#5F5E5A" stroke-width="0.5" marker-end="url(#a)"/>
<line x1="430" y1="250" x2="430" y2="282" stroke="#5F5E5A" stroke-width="0.5" marker-end="url(#a)"/>
<line x1="560" y1="250" x2="560" y2="282" stroke="#5F5E5A" stroke-width="0.5" marker-end="url(#a)"/>

<!-- OpenClaw -->
<rect x="62" y="284" width="106" height="116" rx="8" class="c-teal-fill" stroke-width="0.5"/>
<text class="th th-teal" x="115" y="306" text-anchor="middle">OpenClaw</text>
<text class="ts ts-teal" x="115" y="322" text-anchor="middle">ugly-agent</text>
<text class="ts ts-teal" x="115" y="338" text-anchor="middle">:18789</text>
<text class="ts ts-teal" x="115" y="354" text-anchor="middle">vol: openclaw-data</text>
<text class="ts ts-teal" x="115" y="370" text-anchor="middle">Brevo SMTP</text>
<text class="ts ts-teal" x="115" y="386" text-anchor="middle">OpenRouter</text>

<!-- nginx www -->
<rect x="178" y="284" width="106" height="116" rx="8" class="c-gray-fill" stroke-width="0.5"/>
<text class="th th-gray" x="231" y="306" text-anchor="middle">nginx www</text>
<text class="ts ts-gray" x="231" y="322" text-anchor="middle">Webserver</text>
<text class="ts ts-gray" x="231" y="338" text-anchor="middle">beautymolt.com</text>
<text class="ts ts-gray" x="231" y="354" text-anchor="middle">vol: ./www</text>

<!-- SearXNG -->
<rect x="294" y="284" width="106" height="116" rx="8" class="c-purple-fill" stroke-width="0.5"/>
<text class="th th-purple" x="347" y="306" text-anchor="middle">SearXNG</text>
<text class="ts ts-purple" x="347" y="322" text-anchor="middle">Metasuche</text>
<text class="ts ts-purple" x="347" y="338" text-anchor="middle">:8080</text>
<text class="ts ts-purple" x="347" y="354" text-anchor="middle">vol: searxng-data</text>

<!-- n8n -->
<rect x="410" y="284" width="106" height="116" rx="8" class="c-amber-fill" stroke-width="0.5"/>
<text class="th th-amber" x="463" y="306" text-anchor="middle">n8n</text>
<text class="ts ts-amber" x="463" y="322" text-anchor="middle">Automation</text>
<text class="ts ts-amber" x="463" y="338" text-anchor="middle">:5678</text>
<text class="ts ts-amber" x="463" y="354" text-anchor="middle">vol: n8n-data</text>
<text class="ts ts-amber" x="463" y="370" text-anchor="middle">Brevo SMTP</text>
<text class="ts ts-amber" x="463" y="386" text-anchor="middle">Zoho Empfang</text>

<!-- Roundcube -->
<rect x="526" y="284" width="90" height="116" rx="8" class="c-coral-fill" stroke-width="0.5"/>
<text class="th th-coral" x="571" y="306" text-anchor="middle">Roundcube</text>
<text class="ts ts-coral" x="571" y="322" text-anchor="middle">Webmail</text>
<text class="ts ts-coral" x="571" y="338" text-anchor="middle">:80</text>
<text class="ts ts-coral" x="571" y="354" text-anchor="middle">vol: roundcube</text>
<text class="ts ts-coral" x="571" y="370" text-anchor="middle">Zoho IMAP</text>
<text class="ts ts-coral" x="571" y="386" text-anchor="middle">mail.beauty…</text>

<!-- Externe Dienste -->
<rect x="60" y="436" width="130" height="56" rx="8" class="c-teal-fill" stroke-width="0.5"/>
<text class="th th-teal" x="125" y="458" text-anchor="middle">OpenRouter</text>
<text class="ts ts-teal" x="125" y="474" text-anchor="middle">DeepSeek / Kimi</text>

<rect x="206" y="436" width="130" height="56" rx="8" class="c-amber-fill" stroke-width="0.5"/>
<text class="th th-amber" x="271" y="458" text-anchor="middle">Brevo</text>
<text class="ts ts-amber" x="271" y="474" text-anchor="middle">SMTP relay :587</text>

<rect x="352" y="436" width="130" height="56" rx="8" class="c-coral-fill" stroke-width="0.5"/>
<text class="th th-coral" x="417" y="458" text-anchor="middle">Zoho Mail</text>
<text class="ts ts-coral" x="417" y="474" text-anchor="middle">IMAP / SMTP</text>

<rect x="498" y="436" width="122" height="56" rx="8" class="c-purple-fill" stroke-width="0.5"/>
<text class="th th-purple" x="559" y="458" text-anchor="middle">SearXNG</text>
<text class="ts ts-purple" x="559" y="474" text-anchor="middle">http://searxng:8080</text>

<!-- Verbindungen zu externen Diensten -->
<line x1="115" y1="400" x2="125" y2="434" stroke="#1D9E75" stroke-width="0.5" stroke-dasharray="3 2" marker-end="url(#a)"/>
<line x1="115" y1="400" x2="271" y2="434" stroke="#BA7517" stroke-width="0.5" stroke-dasharray="3 2" marker-end="url(#a)"/>
<line x1="463" y1="400" x2="271" y2="434" stroke="#BA7517" stroke-width="0.5" stroke-dasharray="3 2" marker-end="url(#a)"/>
<line x1="463" y1="400" x2="417" y2="434" stroke="#993C1D" stroke-width="0.5" stroke-dasharray="3 2" marker-end="url(#a)"/>
<line x1="571" y1="400" x2="417" y2="434" stroke="#993C1D" stroke-width="0.5" stroke-dasharray="3 2" marker-end="url(#a)"/>
<line x1="347" y1="400" x2="559" y2="434" stroke="#534AB7" stroke-width="0.5" stroke-dasharray="3 2" marker-end="url(#a)"/>

<!-- GitHub -->
<rect x="40" y="648" width="600" height="48" rx="8" class="c-green-fill" stroke-width="0.5"/>
<text class="th th-green" x="340" y="668" text-anchor="middle">GitHub — uglyatbeautymolt/VPS_Bootstrap</text>
<text class="ts ts-green" x="340" y="684" text-anchor="middle">bootstrap.sh · docker-compose.yml · nginx/ · backup/ · BETRIEB.md</text>

<!-- Cloudflare Secrets Store -->
<rect x="40" y="714" width="290" height="56" rx="8" class="c-blue-fill" stroke-width="0.5"/>
<text class="th th-blue" x="185" y="736" text-anchor="middle">Cloudflare Secrets Store</text>
<text class="ts ts-blue" x="185" y="752" text-anchor="middle">16 Secrets — API Keys + Tokens</text>

<!-- Cloudflare R2 -->
<rect x="350" y="714" width="290" height="56" rx="8" class="c-blue-fill" stroke-width="0.5"/>
<text class="th th-blue" x="495" y="736" text-anchor="middle">Cloudflare R2</text>
<text class="ts ts-blue" x="495" y="752" text-anchor="middle">Backups GPG — 7 Tage Rotation</text>

<line x1="185" y1="630" x2="185" y2="646" stroke="#185FA5" stroke-width="0.5" stroke-dasharray="3 2" marker-end="url(#a)"/>
<line x1="495" y1="630" x2="495" y2="646" stroke="#185FA5" stroke-width="0.5" stroke-dasharray="3 2" marker-end="url(#a)"/>
<line x1="185" y1="696" x2="185" y2="712" stroke="#185FA5" stroke-width="0.5" stroke-dasharray="3 2" marker-end="url(#a)"/>
<line x1="495" y1="696" x2="495" y2="712" stroke="#185FA5" stroke-width="0.5" stroke-dasharray="3 2" marker-end="url(#a)"/>

<!-- Telegram -->
<rect x="230" y="788" width="220" height="40" rx="8" class="c-gray-fill" stroke-width="0.5"/>
<text class="th th-gray" x="340" y="812" text-anchor="middle">Telegram → OpenClaw</text>
<path d="M340 788 L340 776 L115 776 L115 402" fill="none" stroke="#1D9E75" stroke-width="0.5" stroke-dasharray="3 2" marker-end="url(#a)"/>

</svg>
