<svg width="100%" viewBox="0 0 680 780" xmlns="http://www.w3.org/2000/svg" style="font-family: sans-serif;">
<defs>
  <style>
    .th { font-size: 14px; font-weight: 500; fill: #2C2C2A; }
    .ts { font-size: 12px; font-weight: 400; fill: #5F5E5A; }
    .c-gray-fill { fill: #F1EFE8; stroke: #5F5E5A; }
    .c-blue-fill  { fill: #E6F1FB; stroke: #185FA5; }
    .c-blue-dark  { fill: #B5D4F4; stroke: #185FA5; }
    .c-teal-fill  { fill: #E1F5EE; stroke: #0F6E56; }
    .c-purple-fill { fill: #EEEDFE; stroke: #534AB7; }
    .c-amber-fill  { fill: #FAEEDA; stroke: #854F0B; }
    .c-green-fill  { fill: #EAF3DE; stroke: #3B6D11; }
    .th-blue   { fill: #0C447C; }
    .th-teal   { fill: #085041; }
    .th-purple { fill: #3C3489; }
    .th-amber  { fill: #633806; }
    .th-green  { fill: #27500A; }
    .th-gray   { fill: #444441; }
    .ts-blue   { fill: #185FA5; }
    .ts-teal   { fill: #0F6E56; }
    .ts-purple { fill: #534AB7; }
    .ts-amber  { fill: #854F0B; }
    .ts-green  { fill: #3B6D11; }
    .ts-gray   { fill: #5F5E5A; }
  </style>
</defs>

<!-- VPS -->
<rect x="20" y="20" width="640" height="750" rx="16" class="c-gray-fill" stroke-width="0.5"/>
<text class="th th-gray" x="340" y="47" text-anchor="middle">Hostinger VPS — Ubuntu 24.04</text>
<text class="ts ts-gray" x="340" y="64" text-anchor="middle">root + user alex</text>

<!-- Docker Engine -->
<rect x="40" y="78" width="600" height="512" rx="12" class="c-blue-fill" stroke-width="0.5"/>
<text class="th th-blue" x="340" y="100" text-anchor="middle">Docker Engine</text>
<text class="ts ts-blue" x="340" y="116" text-anchor="middle">docker compose — ugly-net — /home/alex/ugly-stack</text>

<!-- Cloudflare Tunnel -->
<rect x="60" y="128" width="560" height="48" class="c-blue-dark" rx="8" stroke-width="1"/>
<text class="th th-blue" x="340" y="148" text-anchor="middle">Cloudflare Tunnel (cloudflared)</text>
<text class="ts ts-blue" x="340" y="164" text-anchor="middle">einziger Eingang von aussen — kein Port offen</text>

<!-- Subdomain labels -->
<text class="ts ts-gray" x="122" y="192" text-anchor="middle">claw.</text>
<text class="ts ts-gray" x="244" y="192" text-anchor="middle">www.</text>
<text class="ts ts-gray" x="366" y="192" text-anchor="middle">search.</text>
<text class="ts ts-gray" x="488" y="192" text-anchor="middle">n8n.</text>
<line x1="122" y1="176" x2="122" y2="198" stroke="#185FA5" stroke-width="0.5" stroke-dasharray="3 2" marker-end="url(#a)"/>
<line x1="244" y1="176" x2="244" y2="198" stroke="#185FA5" stroke-width="0.5" stroke-dasharray="3 2" marker-end="url(#a)"/>
<line x1="366" y1="176" x2="366" y2="198" stroke="#185FA5" stroke-width="0.5" stroke-dasharray="3 2" marker-end="url(#a)"/>
<line x1="488" y1="176" x2="488" y2="198" stroke="#185FA5" stroke-width="0.5" stroke-dasharray="3 2" marker-end="url(#a)"/>

<!-- nginx Reverse Proxy -->
<rect x="60" y="202" width="560" height="48" rx="8" class="c-gray-fill" stroke-width="0.5"/>
<text class="th th-gray" x="340" y="222" text-anchor="middle">nginx — Reverse Proxy</text>
<text class="ts ts-gray" x="340" y="238" text-anchor="middle">intern :80 — verteilt an Services</text>

<line x1="122" y1="250" x2="122" y2="278" stroke="#5F5E5A" stroke-width="0.5" marker-end="url(#a)"/>
<line x1="244" y1="250" x2="244" y2="278" stroke="#5F5E5A" stroke-width="0.5" marker-end="url(#a)"/>
<line x1="366" y1="250" x2="366" y2="278" stroke="#5F5E5A" stroke-width="0.5" marker-end="url(#a)"/>
<line x1="488" y1="250" x2="488" y2="278" stroke="#5F5E5A" stroke-width="0.5" marker-end="url(#a)"/>

<!-- OpenClaw -->
<rect x="60" y="282" width="138" height="108" rx="8" class="c-teal-fill" stroke-width="0.5"/>
<text class="th th-teal" x="129" y="308" text-anchor="middle">OpenClaw</text>
<text class="ts ts-teal" x="129" y="326" text-anchor="middle">ugly-agent</text>
<text class="ts ts-teal" x="129" y="342" text-anchor="middle">intern :18789</text>
<text class="ts ts-teal" x="129" y="358" text-anchor="middle">vol: openclaw-data</text>
<text class="ts ts-teal" x="129" y="374" text-anchor="middle">root im Container</text>

<!-- nginx www -->
<rect x="214" y="282" width="138" height="108" rx="8" class="c-gray-fill" stroke-width="0.5"/>
<text class="th th-gray" x="283" y="308" text-anchor="middle">nginx www</text>
<text class="ts ts-gray" x="283" y="326" text-anchor="middle">Webserver</text>
<text class="ts ts-gray" x="283" y="342" text-anchor="middle">beautymolt.com</text>
<text class="ts ts-gray" x="283" y="358" text-anchor="middle">vol: ./www</text>

<!-- SearXNG -->
<rect x="368" y="282" width="138" height="108" rx="8" class="c-purple-fill" stroke-width="0.5"/>
<text class="th th-purple" x="437" y="308" text-anchor="middle">SearXNG</text>
<text class="ts ts-purple" x="437" y="326" text-anchor="middle">Metasuche</text>
<text class="ts ts-purple" x="437" y="342" text-anchor="middle">intern :8080</text>
<text class="ts ts-purple" x="437" y="358" text-anchor="middle">vol: searxng-data</text>

<!-- n8n -->
<rect x="522" y="282" width="98" height="108" rx="8" class="c-amber-fill" stroke-width="0.5"/>
<text class="th th-amber" x="571" y="308" text-anchor="middle">n8n</text>
<text class="ts ts-amber" x="571" y="326" text-anchor="middle">Automation</text>
<text class="ts ts-amber" x="571" y="342" text-anchor="middle">intern :5678</text>
<text class="ts ts-amber" x="571" y="358" text-anchor="middle">vol: n8n-data</text>

<!-- ugly-net label -->
<text class="ts ts-gray" x="340" y="410" text-anchor="middle">ugly-net (internes Docker-Netzwerk)</text>
<line x1="60" y1="416" x2="620" y2="416" stroke="#B4B2A9" stroke-width="0.5" stroke-dasharray="4 3"/>

<!-- External dependencies -->
<rect x="60" y="426" width="170" height="56" rx="8" class="c-teal-fill" stroke-width="0.5"/>
<text class="th th-teal" x="145" y="450" text-anchor="middle">OpenRouter</text>
<text class="ts ts-teal" x="145" y="466" text-anchor="middle">DeepSeek, MiniMax, Kimi</text>

<rect x="250" y="426" width="180" height="56" rx="8" class="c-purple-fill" stroke-width="0.5"/>
<text class="th th-purple" x="340" y="450" text-anchor="middle">SearXNG intern</text>
<text class="ts ts-purple" x="340" y="466" text-anchor="middle">http://searxng:8080</text>

<rect x="450" y="426" width="170" height="56" rx="8" class="c-amber-fill" stroke-width="0.5"/>
<text class="th th-amber" x="535" y="450" text-anchor="middle">Zoho Mail</text>
<text class="ts ts-amber" x="535" y="466" text-anchor="middle">SMTP relay für n8n</text>

<line x1="129" y1="390" x2="129" y2="424" stroke="#1D9E75" stroke-width="0.5" stroke-dasharray="3 2" marker-end="url(#a)"/>
<line x1="437" y1="390" x2="340" y2="424" stroke="#534AB7" stroke-width="0.5" stroke-dasharray="3 2" marker-end="url(#a)"/>
<line x1="571" y1="390" x2="535" y2="424" stroke="#BA7517" stroke-width="0.5" stroke-dasharray="3 2" marker-end="url(#a)"/>

<!-- GitHub -->
<rect x="40" y="606" width="600" height="48" rx="8" class="c-green-fill" stroke-width="0.5"/>
<text class="th th-green" x="340" y="626" text-anchor="middle">GitHub — uglyatbeautymolt/VPS_Bootstrap</text>
<text class="ts ts-green" x="340" y="642" text-anchor="middle">bootstrap.sh · docker-compose.yml · nginx/ · backup/ · BETRIEB.md</text>

<!-- Cloudflare Secrets + R2 -->
<rect x="40" y="668" width="290" height="56" rx="8" class="c-blue-fill" stroke-width="0.5"/>
<text class="th th-blue" x="185" y="690" text-anchor="middle">Cloudflare Secrets Store</text>
<text class="ts ts-blue" x="185" y="706" text-anchor="middle">14 Secrets — API Keys + Tokens</text>

<rect x="350" y="668" width="290" height="56" rx="8" class="c-blue-fill" stroke-width="0.5"/>
<text class="th th-blue" x="495" y="690" text-anchor="middle">Cloudflare R2</text>
<text class="ts ts-blue" x="495" y="706" text-anchor="middle">Backups GPG — 7 Tage Rotation</text>

<line x1="185" y1="590" x2="185" y2="604" stroke="#185FA5" stroke-width="0.5" stroke-dasharray="3 2" marker-end="url(#a)"/>
<line x1="495" y1="590" x2="495" y2="604" stroke="#185FA5" stroke-width="0.5" stroke-dasharray="3 2" marker-end="url(#a)"/>
<line x1="185" y1="654" x2="185" y2="666" stroke="#185FA5" stroke-width="0.5" stroke-dasharray="3 2" marker-end="url(#a)"/>
<line x1="495" y1="654" x2="495" y2="666" stroke="#185FA5" stroke-width="0.5" stroke-dasharray="3 2" marker-end="url(#a)"/>

<!-- Telegram -->
<rect x="240" y="738" width="200" height="38" rx="8" class="c-gray-fill" stroke-width="0.5"/>
<text class="th th-gray" x="340" y="761" text-anchor="middle">Telegram → OpenClaw</text>

<path d="M340 738 L340 726 L129 726 L129 592" fill="none" stroke="#1D9E75" stroke-width="0.5" stroke-dasharray="3 2" marker-end="url(#a)"/>

<defs>
  <marker id="a" viewBox="0 0 10 10" refX="8" refY="5" markerWidth="6" markerHeight="6" orient="auto-start-reverse">
    <path d="M2 1L8 5L2 9" fill="none" stroke="context-stroke" stroke-width="1.5" stroke-linecap="round" stroke-linejoin="round"/>
  </marker>
</defs>
</svg>
